<svg xmlns="http://www.w3.org/2000/svg" xmlns:xlink="http://www.w3.org/1999/xlink" width="3000" zoomAndPan="magnify" viewBox="0 0 2250 2250.000011" height="3000" preserveAspectRatio="xMidYMid meet" version="1.0"><defs><g/><clipPath id="c1be3fe919"><path d="M 0.5 0 L 2249.5 0 L 2249.5 2249 L 0.5 2249 Z M 0.5 0 " clip-rule="nonzero"/></clipPath></defs><g clip-path="url(#c1be3fe919)"><path fill="#ffffff" d="M 0.5 0 L 2249.5 0 L 2249.5 2249 L 0.5 2249 Z M 0.5 0 " fill-opacity="1" fill-rule="nonzero"/><path fill="#ffffff" d="M 0.5 0 L 2249.5 0 L 2249.5 2249 L 0.5 2249 Z M 0.5 0 " fill-opacity="1" fill-rule="nonzero"/></g><g fill="#000000" fill-opacity="1"><g transform="translate(64.352668, 1177.581487)"><g><path d="M 101.625 -181.046875 L 101.625 -139.4375 L 202.90625 -139.4375 L 202.90625 -77.6875 L 101.625 -77.6875 L 101.625 0 L 19.765625 0 L 19.765625 -242.796875 L 217.125 -242.796875 L 217.125 -181.046875 Z M 101.625 -181.046875 "/></g></g></g><g fill="#000000" fill-opacity="1"><g transform="translate(274.884485, 1177.581487)"><g><path d="M 19.765625 -242.796875 L 101.625 -242.796875 L 101.625 0 L 19.765625 0 Z M 19.765625 -242.796875 "/></g></g></g><g fill="#000000" fill-opacity="1"><g transform="translate(383.445287, 1177.581487)"><g><path d="M 173.421875 0 L 131.453125 -64.859375 L 90.53125 0 L -2.78125 0 L 84.984375 -122.4375 L 0.34375 -242.796875 L 92.265625 -242.796875 L 133.53125 -181.75 L 173.765625 -242.796875 L 261.859375 -242.796875 L 177.578125 -125.5625 L 267.0625 0 Z M 173.421875 0 "/></g></g></g><g fill="#ff0000" fill-opacity="1"><g transform="translate(634.90766, 1177.581487)"><g><path d="M 135.96875 5.546875 C 98.738281 5.546875 69.71875 -4.507812 48.90625 -24.625 C 28.09375 -44.738281 17.6875 -72.945312 17.6875 -109.25 L 17.6875 -242.796875 L 99.546875 -242.796875 L 99.546875 -111.6875 C 99.546875 -93.882812 102.722656 -80.9375 109.078125 -72.84375 C 115.441406 -64.75 124.632812 -60.703125 136.65625 -60.703125 C 148.675781 -60.703125 157.863281 -64.75 164.21875 -72.84375 C 170.582031 -80.9375 173.765625 -93.882812 173.765625 -111.6875 L 173.765625 -242.796875 L 254.234375 -242.796875 L 254.234375 -109.25 C 254.234375 -72.945312 243.828125 -44.738281 223.015625 -24.625 C 202.203125 -4.507812 173.1875 5.546875 135.96875 5.546875 Z M 135.96875 5.546875 "/></g></g></g><g fill="#000000" fill-opacity="1"><g transform="translate(893.999534, 1177.581487)"><g><path d="M 136.65625 -242.796875 C 159.082031 -242.796875 178.617188 -239.09375 195.265625 -231.6875 C 211.921875 -224.289062 224.753906 -213.65625 233.765625 -199.78125 C 242.785156 -185.90625 247.296875 -169.71875 247.296875 -151.21875 C 247.296875 -132.71875 242.785156 -116.53125 233.765625 -102.65625 C 224.753906 -88.789062 211.921875 -78.15625 195.265625 -70.75 C 178.617188 -63.351562 159.082031 -59.65625 136.65625 -59.65625 L 101.625 -59.65625 L 101.625 0 L 19.765625 0 L 19.765625 -242.796875 Z M 131.453125 -122.78125 C 142.554688 -122.78125 150.878906 -125.265625 156.421875 -130.234375 C 161.972656 -135.210938 164.75 -142.207031 164.75 -151.21875 C 164.75 -160.238281 161.972656 -167.234375 156.421875 -172.203125 C 150.878906 -177.179688 142.554688 -179.671875 131.453125 -179.671875 L 101.625 -179.671875 L 101.625 -122.78125 Z M 131.453125 -122.78125 "/></g></g></g><g fill="#000000" fill-opacity="1"><g transform="translate(1138.868602, 1177.581487)"><g><path d="M 259.09375 -242.796875 L 259.09375 0 L 177.234375 0 L 177.234375 -89.484375 L 101.625 -89.484375 L 101.625 0 L 19.765625 0 L 19.765625 -242.796875 L 101.625 -242.796875 L 101.625 -156.765625 L 177.234375 -156.765625 L 177.234375 -242.796875 Z M 259.09375 -242.796875 "/></g></g></g><g fill="#000000" fill-opacity="1"><g transform="translate(1404.894893, 1177.581487)"><g><path d="M 147.0625 5.546875 C 120.9375 5.546875 97.46875 0.113281 76.65625 -10.75 C 55.84375 -21.613281 39.539062 -36.703125 27.75 -56.015625 C 15.957031 -75.328125 10.0625 -97.117188 10.0625 -121.390625 C 10.0625 -145.671875 15.957031 -167.460938 27.75 -186.765625 C 39.539062 -206.078125 55.84375 -221.164062 76.65625 -232.03125 C 97.46875 -242.90625 120.9375 -248.34375 147.0625 -248.34375 C 173.1875 -248.34375 196.65625 -242.90625 217.46875 -232.03125 C 238.28125 -221.164062 254.582031 -206.078125 266.375 -186.765625 C 278.164062 -167.460938 284.0625 -145.671875 284.0625 -121.390625 C 284.0625 -97.117188 278.164062 -75.328125 266.375 -56.015625 C 254.582031 -36.703125 238.28125 -21.613281 217.46875 -10.75 C 196.65625 0.113281 173.1875 5.546875 147.0625 5.546875 Z M 147.0625 -60.703125 C 157.238281 -60.703125 166.429688 -63.1875 174.640625 -68.15625 C 182.847656 -73.125 189.378906 -80.175781 194.234375 -89.3125 C 199.085938 -98.445312 201.515625 -109.140625 201.515625 -121.390625 C 201.515625 -133.648438 199.085938 -144.34375 194.234375 -153.46875 C 189.378906 -162.601562 182.847656 -169.65625 174.640625 -174.625 C 166.429688 -179.601562 157.238281 -182.09375 147.0625 -182.09375 C 136.882812 -182.09375 127.691406 -179.601562 119.484375 -174.625 C 111.273438 -169.65625 104.742188 -162.601562 99.890625 -153.46875 C 95.035156 -144.34375 92.609375 -133.648438 92.609375 -121.390625 C 92.609375 -109.140625 95.035156 -98.445312 99.890625 -89.3125 C 104.742188 -80.175781 111.273438 -73.125 119.484375 -68.15625 C 127.691406 -63.1875 136.882812 -60.703125 147.0625 -60.703125 Z M 147.0625 -60.703125 "/></g></g></g><g fill="#000000" fill-opacity="1"><g transform="translate(1686.182189, 1177.581487)"><g><path d="M 259.09375 -242.796875 L 259.09375 0 L 191.796875 0 L 99.546875 -110.296875 L 99.546875 0 L 19.765625 0 L 19.765625 -242.796875 L 87.0625 -242.796875 L 179.3125 -132.5 L 179.3125 -242.796875 Z M 259.09375 -242.796875 "/></g></g></g><g fill="#000000" fill-opacity="1"><g transform="translate(1952.20848, 1177.581487)"><g><path d="M 221.640625 -61.734375 L 221.640625 0 L 19.765625 0 L 19.765625 -242.796875 L 217.125 -242.796875 L 217.125 -181.046875 L 100.234375 -181.046875 L 100.234375 -152.609375 L 202.90625 -152.609375 L 202.90625 -93.640625 L 100.234375 -93.640625 L 100.234375 -61.734375 Z M 221.640625 -61.734375 "/></g></g></g><g fill="#404041" fill-opacity="1"><g transform="translate(203.127344, 1303.575525)"><g><path d="M 37.796875 0 L 28.140625 -13.9375 L 17.5 -13.9375 L 17.5 0 L 5.921875 0 L 5.921875 -50 L 27.578125 -50 C 32.003906 -50 35.847656 -49.257812 39.109375 -47.78125 C 42.367188 -46.3125 44.878906 -44.21875 46.640625 -41.5 C 48.410156 -38.789062 49.296875 -35.578125 49.296875 -31.859375 C 49.296875 -28.140625 48.398438 -24.9375 46.609375 -22.25 C 44.828125 -19.5625 42.289062 -17.503906 39 -16.078125 L 50.21875 0 Z M 37.578125 -31.859375 C 37.578125 -34.671875 36.671875 -36.828125 34.859375 -38.328125 C 33.046875 -39.828125 30.40625 -40.578125 26.9375 -40.578125 L 17.5 -40.578125 L 17.5 -23.140625 L 26.9375 -23.140625 C 30.40625 -23.140625 33.046875 -23.898438 34.859375 -25.421875 C 36.671875 -26.953125 37.578125 -29.097656 37.578125 -31.859375 Z M 37.578125 -31.859375 "/></g></g></g><g fill="#404041" fill-opacity="1"><g transform="translate(269.416369, 1303.575525)"><g><path d="M 44.65625 -9.28125 L 44.65625 0 L 5.921875 0 L 5.921875 -50 L 43.71875 -50 L 43.71875 -40.71875 L 17.4375 -40.71875 L 17.4375 -29.859375 L 40.640625 -29.859375 L 40.640625 -20.859375 L 17.4375 -20.859375 L 17.4375 -9.28125 Z M 44.65625 -9.28125 "/></g></g></g><g fill="#404041" fill-opacity="1"><g transform="translate(331.13392, 1303.575525)"><g><path d="M 27.578125 -50 C 32.003906 -50 35.847656 -49.257812 39.109375 -47.78125 C 42.367188 -46.3125 44.878906 -44.21875 46.640625 -41.5 C 48.410156 -38.789062 49.296875 -35.578125 49.296875 -31.859375 C 49.296875 -28.191406 48.410156 -24.988281 46.640625 -22.25 C 44.878906 -19.507812 42.367188 -17.410156 39.109375 -15.953125 C 35.847656 -14.503906 32.003906 -13.78125 27.578125 -13.78125 L 17.5 -13.78125 L 17.5 0 L 5.921875 0 L 5.921875 -50 Z M 26.9375 -23.21875 C 30.40625 -23.21875 33.046875 -23.96875 34.859375 -25.46875 C 36.671875 -26.96875 37.578125 -29.097656 37.578125 -31.859375 C 37.578125 -34.671875 36.671875 -36.828125 34.859375 -38.328125 C 33.046875 -39.828125 30.40625 -40.578125 26.9375 -40.578125 L 17.5 -40.578125 L 17.5 -23.21875 Z M 26.9375 -23.21875 "/></g></g></g><g fill="#404041" fill-opacity="1"><g transform="translate(397.208658, 1303.575525)"><g><path d="M 38.859375 -10.71875 L 15.640625 -10.71875 L 11.21875 0 L -0.640625 0 L 21.640625 -50 L 33.078125 -50 L 55.4375 0 L 43.296875 0 Z M 35.21875 -19.5 L 27.296875 -38.640625 L 19.359375 -19.5 Z M 35.21875 -19.5 "/></g></g></g><g fill="#404041" fill-opacity="1"><g transform="translate(465.712, 1303.575525)"><g><path d="M 37.796875 0 L 28.140625 -13.9375 L 17.5 -13.9375 L 17.5 0 L 5.921875 0 L 5.921875 -50 L 27.578125 -50 C 32.003906 -50 35.847656 -49.257812 39.109375 -47.78125 C 42.367188 -46.3125 44.878906 -44.21875 46.640625 -41.5 C 48.410156 -38.789062 49.296875 -35.578125 49.296875 -31.859375 C 49.296875 -28.140625 48.398438 -24.9375 46.609375 -22.25 C 44.828125 -19.5625 42.289062 -17.503906 39 -16.078125 L 50.21875 0 Z M 37.578125 -31.859375 C 37.578125 -34.671875 36.671875 -36.828125 34.859375 -38.328125 C 33.046875 -39.828125 30.40625 -40.578125 26.9375 -40.578125 L 17.5 -40.578125 L 17.5 -23.140625 L 26.9375 -23.140625 C 30.40625 -23.140625 33.046875 -23.898438 34.859375 -25.421875 C 36.671875 -26.953125 37.578125 -29.097656 37.578125 -31.859375 Z M 37.578125 -31.859375 "/></g></g></g><g fill="#404041" fill-opacity="1"><g transform="translate(532.001002, 1303.575525)"><g><path d="M 38.859375 -10.71875 L 15.640625 -10.71875 L 11.21875 0 L -0.640625 0 L 21.640625 -50 L 33.078125 -50 L 55.4375 0 L 43.296875 0 Z M 35.21875 -19.5 L 27.296875 -38.640625 L 19.359375 -19.5 Z M 35.21875 -19.5 "/></g></g></g><g fill="#404041" fill-opacity="1"><g transform="translate(600.504367, 1303.575525)"><g><path d="M 16.28125 -40.578125 L 0.28125 -40.578125 L 0.28125 -50 L 43.859375 -50 L 43.859375 -40.578125 L 27.859375 -40.578125 L 27.859375 0 L 16.28125 0 Z M 16.28125 -40.578125 "/></g></g></g><g fill="#404041" fill-opacity="1"><g transform="translate(658.436168, 1303.575525)"><g><path d="M 5.921875 -50 L 17.5 -50 L 17.5 0 L 5.921875 0 Z M 5.921875 -50 "/></g></g></g><g fill="#404041" fill-opacity="1"><g transform="translate(695.653482, 1303.575525)"><g><path d="M 44.65625 -9.28125 L 44.65625 0 L 5.921875 0 L 5.921875 -50 L 43.71875 -50 L 43.71875 -40.71875 L 17.4375 -40.71875 L 17.4375 -29.859375 L 40.640625 -29.859375 L 40.640625 -20.859375 L 17.4375 -20.859375 L 17.4375 -9.28125 Z M 44.65625 -9.28125 "/></g></g></g><g fill="#404041" fill-opacity="1"><g transform="translate(757.370999, 1303.575525)"><g><path d="M 22.359375 0.859375 C 18.410156 0.859375 14.585938 0.320312 10.890625 -0.75 C 7.203125 -1.820312 4.238281 -3.210938 2 -4.921875 L 5.921875 -13.640625 C 8.066406 -12.066406 10.613281 -10.800781 13.5625 -9.84375 C 16.519531 -8.894531 19.476562 -8.421875 22.4375 -8.421875 C 25.71875 -8.421875 28.144531 -8.910156 29.71875 -9.890625 C 31.289062 -10.867188 32.078125 -12.164062 32.078125 -13.78125 C 32.078125 -14.976562 31.613281 -15.96875 30.6875 -16.75 C 29.757812 -17.539062 28.566406 -18.171875 27.109375 -18.640625 C 25.660156 -19.117188 23.695312 -19.644531 21.21875 -20.21875 C 17.40625 -21.125 14.285156 -22.023438 11.859375 -22.921875 C 9.429688 -23.828125 7.347656 -25.28125 5.609375 -27.28125 C 3.867188 -29.289062 3 -31.960938 3 -35.296875 C 3 -38.191406 3.785156 -40.816406 5.359375 -43.171875 C 6.929688 -45.535156 9.300781 -47.40625 12.46875 -48.78125 C 15.632812 -50.164062 19.503906 -50.859375 24.078125 -50.859375 C 27.265625 -50.859375 30.378906 -50.476562 33.421875 -49.71875 C 36.472656 -48.957031 39.144531 -47.863281 41.4375 -46.4375 L 37.859375 -37.640625 C 33.242188 -40.265625 28.625 -41.578125 24 -41.578125 C 20.757812 -41.578125 18.363281 -41.050781 16.8125 -40 C 15.269531 -38.957031 14.5 -37.578125 14.5 -35.859375 C 14.5 -34.148438 15.390625 -32.878906 17.171875 -32.046875 C 18.960938 -31.210938 21.691406 -30.390625 25.359375 -29.578125 C 29.171875 -28.671875 32.289062 -27.765625 34.71875 -26.859375 C 37.144531 -25.953125 39.226562 -24.519531 40.96875 -22.5625 C 42.707031 -20.613281 43.578125 -17.972656 43.578125 -14.640625 C 43.578125 -11.785156 42.78125 -9.175781 41.1875 -6.8125 C 39.59375 -4.457031 37.195312 -2.585938 34 -1.203125 C 30.8125 0.171875 26.929688 0.859375 22.359375 0.859375 Z M 22.359375 0.859375 "/></g></g></g><g fill="#404041" fill-opacity="1"><g transform="translate(816.731394, 1303.575525)"><g/></g></g><g fill="#404041" fill-opacity="1"><g transform="translate(850.734392, 1303.575525)"><g><path d="M 54 -50 L 32.359375 0 L 20.9375 0 L -0.640625 -50 L 11.859375 -50 L 27.078125 -14.28125 L 42.5 -50 Z M 54 -50 "/></g></g></g><g fill="#404041" fill-opacity="1"><g transform="translate(917.809162, 1303.575525)"><g><path d="M 38.859375 -10.71875 L 15.640625 -10.71875 L 11.21875 0 L -0.640625 0 L 21.640625 -50 L 33.078125 -50 L 55.4375 0 L 43.296875 0 Z M 35.21875 -19.5 L 27.296875 -38.640625 L 19.359375 -19.5 Z M 35.21875 -19.5 "/></g></g></g><g fill="#404041" fill-opacity="1"><g transform="translate(986.312436, 1303.575525)"><g><path d="M 51.796875 -50 L 51.796875 0 L 42.296875 0 L 17.359375 -30.359375 L 17.359375 0 L 5.921875 0 L 5.921875 -50 L 15.5 -50 L 40.359375 -19.640625 L 40.359375 -50 Z M 51.796875 -50 "/></g></g></g><g fill="#404041" fill-opacity="1"><g transform="translate(1057.815841, 1303.575525)"><g/></g></g><g fill="#404041" fill-opacity="1"><g transform="translate(1091.818794, 1303.575525)"><g><path d="M 27.578125 -50 C 32.003906 -50 35.847656 -49.257812 39.109375 -47.78125 C 42.367188 -46.3125 44.878906 -44.21875 46.640625 -41.5 C 48.410156 -38.789062 49.296875 -35.578125 49.296875 -31.859375 C 49.296875 -28.191406 48.410156 -24.988281 46.640625 -22.25 C 44.878906 -19.507812 42.367188 -17.410156 39.109375 -15.953125 C 35.847656 -14.503906 32.003906 -13.78125 27.578125 -13.78125 L 17.5 -13.78125 L 17.5 0 L 5.921875 0 L 5.921875 -50 Z M 26.9375 -23.21875 C 30.40625 -23.21875 33.046875 -23.96875 34.859375 -25.46875 C 36.671875 -26.96875 37.578125 -29.097656 37.578125 -31.859375 C 37.578125 -34.671875 36.671875 -36.828125 34.859375 -38.328125 C 33.046875 -39.828125 30.40625 -40.578125 26.9375 -40.578125 L 17.5 -40.578125 L 17.5 -23.21875 Z M 26.9375 -23.21875 "/></g></g></g><g fill="#404041" fill-opacity="1"><g transform="translate(1157.89352, 1303.575525)"><g><path d="M 51.796875 -50 L 51.796875 0 L 40.21875 0 L 40.21875 -20.5 L 17.5 -20.5 L 17.5 0 L 5.921875 0 L 5.921875 -50 L 17.5 -50 L 17.5 -30.296875 L 40.21875 -30.296875 L 40.21875 -50 Z M 51.796875 -50 "/></g></g></g><g fill="#404041" fill-opacity="1"><g transform="translate(1229.396925, 1303.575525)"><g><path d="M 30.140625 0.859375 C 24.953125 0.859375 20.273438 -0.257812 16.109375 -2.5 C 11.941406 -4.738281 8.675781 -7.820312 6.3125 -11.75 C 3.957031 -15.675781 2.78125 -20.09375 2.78125 -25 C 2.78125 -29.90625 3.957031 -34.320312 6.3125 -38.25 C 8.675781 -42.175781 11.941406 -45.257812 16.109375 -47.5 C 20.273438 -49.738281 24.953125 -50.859375 30.140625 -50.859375 C 35.335938 -50.859375 40.003906 -49.738281 44.140625 -47.5 C 48.285156 -45.257812 51.546875 -42.175781 53.921875 -38.25 C 56.304688 -34.320312 57.5 -29.90625 57.5 -25 C 57.5 -20.09375 56.304688 -15.675781 53.921875 -11.75 C 51.546875 -7.820312 48.285156 -4.738281 44.140625 -2.5 C 40.003906 -0.257812 35.335938 0.859375 30.140625 0.859375 Z M 30.140625 -9 C 33.097656 -9 35.765625 -9.675781 38.140625 -11.03125 C 40.523438 -12.394531 42.394531 -14.289062 43.75 -16.71875 C 45.113281 -19.144531 45.796875 -21.90625 45.796875 -25 C 45.796875 -28.09375 45.113281 -30.851562 43.75 -33.28125 C 42.394531 -35.71875 40.523438 -37.613281 38.140625 -38.96875 C 35.765625 -40.320312 33.097656 -41 30.140625 -41 C 27.191406 -41 24.523438 -40.320312 22.140625 -38.96875 C 19.765625 -37.613281 17.894531 -35.71875 16.53125 -33.28125 C 15.175781 -30.851562 14.5 -28.09375 14.5 -25 C 14.5 -21.90625 15.175781 -19.144531 16.53125 -16.71875 C 17.894531 -14.289062 19.765625 -12.394531 22.140625 -11.03125 C 24.523438 -9.675781 27.191406 -9 30.140625 -9 Z M 30.140625 -9 "/></g></g></g><g fill="#404041" fill-opacity="1"><g transform="translate(1303.471727, 1303.575525)"><g><path d="M 51.796875 -50 L 51.796875 0 L 42.296875 0 L 17.359375 -30.359375 L 17.359375 0 L 5.921875 0 L 5.921875 -50 L 15.5 -50 L 40.359375 -19.640625 L 40.359375 -50 Z M 51.796875 -50 "/></g></g></g><g fill="#404041" fill-opacity="1"><g transform="translate(1374.975132, 1303.575525)"><g><path d="M 44.65625 -9.28125 L 44.65625 0 L 5.921875 0 L 5.921875 -50 L 43.71875 -50 L 43.71875 -40.71875 L 17.4375 -40.71875 L 17.4375 -29.859375 L 40.640625 -29.859375 L 40.640625 -20.859375 L 17.4375 -20.859375 L 17.4375 -9.28125 Z M 44.65625 -9.28125 "/></g></g></g><g fill="#404041" fill-opacity="1"><g transform="translate(1436.692695, 1303.575525)"><g><path d="M 22.359375 0.859375 C 18.410156 0.859375 14.585938 0.320312 10.890625 -0.75 C 7.203125 -1.820312 4.238281 -3.210938 2 -4.921875 L 5.921875 -13.640625 C 8.066406 -12.066406 10.613281 -10.800781 13.5625 -9.84375 C 16.519531 -8.894531 19.476562 -8.421875 22.4375 -8.421875 C 25.71875 -8.421875 28.144531 -8.910156 29.71875 -9.890625 C 31.289062 -10.867188 32.078125 -12.164062 32.078125 -13.78125 C 32.078125 -14.976562 31.613281 -15.96875 30.6875 -16.75 C 29.757812 -17.539062 28.566406 -18.171875 27.109375 -18.640625 C 25.660156 -19.117188 23.695312 -19.644531 21.21875 -20.21875 C 17.40625 -21.125 14.285156 -22.023438 11.859375 -22.921875 C 9.429688 -23.828125 7.347656 -25.28125 5.609375 -27.28125 C 3.867188 -29.289062 3 -31.960938 3 -35.296875 C 3 -38.191406 3.785156 -40.816406 5.359375 -43.171875 C 6.929688 -45.535156 9.300781 -47.40625 12.46875 -48.78125 C 15.632812 -50.164062 19.503906 -50.859375 24.078125 -50.859375 C 27.265625 -50.859375 30.378906 -50.476562 33.421875 -49.71875 C 36.472656 -48.957031 39.144531 -47.863281 41.4375 -46.4375 L 37.859375 -37.640625 C 33.242188 -40.265625 28.625 -41.578125 24 -41.578125 C 20.757812 -41.578125 18.363281 -41.050781 16.8125 -40 C 15.269531 -38.957031 14.5 -37.578125 14.5 -35.859375 C 14.5 -34.148438 15.390625 -32.878906 17.171875 -32.046875 C 18.960938 -31.210938 21.691406 -30.390625 25.359375 -29.578125 C 29.171875 -28.671875 32.289062 -27.765625 34.71875 -26.859375 C 37.144531 -25.953125 39.226562 -24.519531 40.96875 -22.5625 C 42.707031 -20.613281 43.578125 -17.972656 43.578125 -14.640625 C 43.578125 -11.785156 42.78125 -9.175781 41.1875 -6.8125 C 39.59375 -4.457031 37.195312 -2.585938 34 -1.203125 C 30.8125 0.171875 26.929688 0.859375 22.359375 0.859375 Z M 22.359375 0.859375 "/></g></g></g><g fill="#404041" fill-opacity="1"><g transform="translate(1496.052999, 1303.575525)"><g/></g></g><g fill="#404041" fill-opacity="1"><g transform="translate(1530.056043, 1303.575525)"><g><path d="M 44.359375 0.859375 L 38.359375 -4.71875 C 33.597656 -1 28.023438 0.859375 21.640625 0.859375 C 18.023438 0.859375 14.765625 0.273438 11.859375 -0.890625 C 8.953125 -2.054688 6.675781 -3.6875 5.03125 -5.78125 C 3.394531 -7.882812 2.578125 -10.242188 2.578125 -12.859375 C 2.578125 -15.953125 3.441406 -18.675781 5.171875 -21.03125 C 6.910156 -23.394531 9.710938 -25.648438 13.578125 -27.796875 C 11.765625 -29.648438 10.453125 -31.421875 9.640625 -33.109375 C 8.828125 -34.796875 8.421875 -36.546875 8.421875 -38.359375 C 8.421875 -40.785156 9.0625 -42.925781 10.34375 -44.78125 C 11.632812 -46.644531 13.457031 -48.085938 15.8125 -49.109375 C 18.175781 -50.140625 20.90625 -50.65625 24 -50.65625 C 28.332031 -50.65625 31.804688 -49.617188 34.421875 -47.546875 C 37.046875 -45.472656 38.359375 -42.671875 38.359375 -39.140625 C 38.359375 -36.578125 37.582031 -34.296875 36.03125 -32.296875 C 34.488281 -30.296875 32.003906 -28.363281 28.578125 -26.5 L 37.71875 -18 C 38.8125 -20.289062 39.644531 -22.882812 40.21875 -25.78125 L 49.15625 -23 C 48.195312 -18.570312 46.671875 -14.785156 44.578125 -11.640625 L 50.4375 -6.21875 Z M 24 -43.078125 C 22.332031 -43.078125 21.007812 -42.644531 20.03125 -41.78125 C 19.0625 -40.925781 18.578125 -39.832031 18.578125 -38.5 C 18.578125 -37.5 18.835938 -36.554688 19.359375 -35.671875 C 19.878906 -34.796875 20.90625 -33.617188 22.4375 -32.140625 C 24.863281 -33.429688 26.550781 -34.585938 27.5 -35.609375 C 28.457031 -36.628906 28.9375 -37.738281 28.9375 -38.9375 C 28.9375 -40.175781 28.503906 -41.175781 27.640625 -41.9375 C 26.785156 -42.695312 25.570312 -43.078125 24 -43.078125 Z M 22.4375 -7.859375 C 25.90625 -7.859375 29.023438 -8.832031 31.796875 -10.78125 L 19.71875 -22.078125 C 17.476562 -20.785156 15.878906 -19.519531 14.921875 -18.28125 C 13.972656 -17.050781 13.5 -15.648438 13.5 -14.078125 C 13.5 -12.210938 14.304688 -10.707031 15.921875 -9.5625 C 17.546875 -8.425781 19.71875 -7.859375 22.4375 -7.859375 Z M 22.4375 -7.859375 "/></g></g></g><g fill="#404041" fill-opacity="1"><g transform="translate(1595.845068, 1303.575525)"><g/></g></g><g fill="#404041" fill-opacity="1"><g transform="translate(1629.848021, 1303.575525)"><g><path d="M 16.28125 -40.578125 L 0.28125 -40.578125 L 0.28125 -50 L 43.859375 -50 L 43.859375 -40.578125 L 27.859375 -40.578125 L 27.859375 0 L 16.28125 0 Z M 16.28125 -40.578125 "/></g></g></g><g fill="#404041" fill-opacity="1"><g transform="translate(1687.779821, 1303.575525)"><g><path d="M 38.859375 -10.71875 L 15.640625 -10.71875 L 11.21875 0 L -0.640625 0 L 21.640625 -50 L 33.078125 -50 L 55.4375 0 L 43.296875 0 Z M 35.21875 -19.5 L 27.296875 -38.640625 L 19.359375 -19.5 Z M 35.21875 -19.5 "/></g></g></g><g fill="#404041" fill-opacity="1"><g transform="translate(1756.283186, 1303.575525)"><g><path d="M 42.640625 -26 C 45.503906 -25.09375 47.742188 -23.578125 49.359375 -21.453125 C 50.984375 -19.335938 51.796875 -16.734375 51.796875 -13.640625 C 51.796875 -9.265625 50.09375 -5.894531 46.6875 -3.53125 C 43.28125 -1.175781 38.316406 0 31.796875 0 L 5.921875 0 L 5.921875 -50 L 30.359375 -50 C 36.453125 -50 41.128906 -48.832031 44.390625 -46.5 C 47.660156 -44.164062 49.296875 -41 49.296875 -37 C 49.296875 -34.570312 48.710938 -32.40625 47.546875 -30.5 C 46.378906 -28.59375 44.742188 -27.09375 42.640625 -26 Z M 17.4375 -41.296875 L 17.4375 -29.5 L 28.9375 -29.5 C 31.789062 -29.5 33.953125 -30 35.421875 -31 C 36.898438 -32 37.640625 -33.476562 37.640625 -35.4375 C 37.640625 -37.382812 36.898438 -38.847656 35.421875 -39.828125 C 33.953125 -40.804688 31.789062 -41.296875 28.9375 -41.296875 Z M 30.9375 -8.71875 C 33.976562 -8.71875 36.269531 -9.21875 37.8125 -10.21875 C 39.363281 -11.21875 40.140625 -12.765625 40.140625 -14.859375 C 40.140625 -19.003906 37.070312 -21.078125 30.9375 -21.078125 L 17.4375 -21.078125 L 17.4375 -8.71875 Z M 30.9375 -8.71875 "/></g></g></g><g fill="#404041" fill-opacity="1"><g transform="translate(1824.715172, 1303.575525)"><g><path d="M 5.921875 -50 L 17.5 -50 L 17.5 -9.4375 L 42.578125 -9.4375 L 42.578125 0 L 5.921875 0 Z M 5.921875 -50 "/></g></g></g><g fill="#404041" fill-opacity="1"><g transform="translate(1881.646837, 1303.575525)"><g><path d="M 44.65625 -9.28125 L 44.65625 0 L 5.921875 0 L 5.921875 -50 L 43.71875 -50 L 43.71875 -40.71875 L 17.4375 -40.71875 L 17.4375 -29.859375 L 40.640625 -29.859375 L 40.640625 -20.859375 L 17.4375 -20.859375 L 17.4375 -9.28125 Z M 44.65625 -9.28125 "/></g></g></g><g fill="#404041" fill-opacity="1"><g transform="translate(1943.3644, 1303.575525)"><g><path d="M 16.28125 -40.578125 L 0.28125 -40.578125 L 0.28125 -50 L 43.859375 -50 L 43.859375 -40.578125 L 27.859375 -40.578125 L 27.859375 0 L 16.28125 0 Z M 16.28125 -40.578125 "/></g></g></g><g fill="#404041" fill-opacity="1"><g transform="translate(2001.296291, 1303.575525)"><g><path d="M 22.359375 0.859375 C 18.410156 0.859375 14.585938 0.320312 10.890625 -0.75 C 7.203125 -1.820312 4.238281 -3.210938 2 -4.921875 L 5.921875 -13.640625 C 8.066406 -12.066406 10.613281 -10.800781 13.5625 -9.84375 C 16.519531 -8.894531 19.476562 -8.421875 22.4375 -8.421875 C 25.71875 -8.421875 28.144531 -8.910156 29.71875 -9.890625 C 31.289062 -10.867188 32.078125 -12.164062 32.078125 -13.78125 C 32.078125 -14.976562 31.613281 -15.96875 30.6875 -16.75 C 29.757812 -17.539062 28.566406 -18.171875 27.109375 -18.640625 C 25.660156 -19.117188 23.695312 -19.644531 21.21875 -20.21875 C 17.40625 -21.125 14.285156 -22.023438 11.859375 -22.921875 C 9.429688 -23.828125 7.347656 -25.28125 5.609375 -27.28125 C 3.867188 -29.289062 3 -31.960938 3 -35.296875 C 3 -38.191406 3.785156 -40.816406 5.359375 -43.171875 C 6.929688 -45.535156 9.300781 -47.40625 12.46875 -48.78125 C 15.632812 -50.164062 19.503906 -50.859375 24.078125 -50.859375 C 27.265625 -50.859375 30.378906 -50.476562 33.421875 -49.71875 C 36.472656 -48.957031 39.144531 -47.863281 41.4375 -46.4375 L 37.859375 -37.640625 C 33.242188 -40.265625 28.625 -41.578125 24 -41.578125 C 20.757812 -41.578125 18.363281 -41.050781 16.8125 -40 C 15.269531 -38.957031 14.5 -37.578125 14.5 -35.859375 C 14.5 -34.148438 15.390625 -32.878906 17.171875 -32.046875 C 18.960938 -31.210938 21.691406 -30.390625 25.359375 -29.578125 C 29.171875 -28.671875 32.289062 -27.765625 34.71875 -26.859375 C 37.144531 -25.953125 39.226562 -24.519531 40.96875 -22.5625 C 42.707031 -20.613281 43.578125 -17.972656 43.578125 -14.640625 C 43.578125 -11.785156 42.78125 -9.175781 41.1875 -6.8125 C 39.59375 -4.457031 37.195312 -2.585938 34 -1.203125 C 30.8125 0.171875 26.929688 0.859375 22.359375 0.859375 Z M 22.359375 0.859375 "/></g></g></g></svg>