<svg xmlns="http://www.w3.org/2000/svg" xmlns:xlink="http://www.w3.org/1999/xlink" width="200" zoomAndPan="magnify" viewBox="0 0 150 60" height="80" preserveAspectRatio="xMidYMid meet" version="1.0"><defs><g/><clipPath id="a7d373bd50"><rect x="0" width="130" y="0" height="27"/></clipPath><clipPath id="b8d3eab0f8"><path d="M 0.160156 1 L 4 1 L 4 5 L 0.160156 5 Z M 0.160156 1 " clip-rule="nonzero"/></clipPath><clipPath id="3823cd5c8f"><rect x="0" width="111" y="0" height="7"/></clipPath></defs><g transform="matrix(1, 0, 0, 1, 10, 14)"><g clip-path="url(#a7d373bd50)"><g fill="#000000" fill-opacity="1"><g transform="translate(1.41808, 20.860852)"><g><path d="M 6.09375 -10.859375 L 6.09375 -8.359375 L 12.171875 -8.359375 L 12.171875 -4.65625 L 6.09375 -4.65625 L 6.09375 0 L 1.1875 0 L 1.1875 -14.5625 L 13.015625 -14.5625 L 13.015625 -10.859375 Z M 6.09375 -10.859375 "/></g></g></g><g fill="#000000" fill-opacity="1"><g transform="translate(14.036795, 20.860852)"><g><path d="M 1.1875 -14.5625 L 6.09375 -14.5625 L 6.09375 0 L 1.1875 0 Z M 1.1875 -14.5625 "/></g></g></g><g fill="#000000" fill-opacity="1"><g transform="translate(20.543529, 20.860852)"><g><path d="M 10.390625 0 L 7.875 -3.890625 L 5.421875 0 L -0.171875 0 L 5.09375 -7.34375 L 0.015625 -14.5625 L 5.53125 -14.5625 L 8 -10.890625 L 10.421875 -14.5625 L 15.703125 -14.5625 L 10.640625 -7.53125 L 16.015625 0 Z M 10.390625 0 "/></g></g></g><g fill="#ff0000" fill-opacity="1"><g transform="translate(35.6205, 20.860852)"><g><path d="M 8.15625 0.328125 C 5.914062 0.328125 4.171875 -0.269531 2.921875 -1.46875 C 1.679688 -2.675781 1.0625 -4.367188 1.0625 -6.546875 L 1.0625 -14.5625 L 5.96875 -14.5625 L 5.96875 -6.703125 C 5.96875 -5.628906 6.15625 -4.847656 6.53125 -4.359375 C 6.914062 -3.878906 7.46875 -3.640625 8.1875 -3.640625 C 8.914062 -3.640625 9.46875 -3.878906 9.84375 -4.359375 C 10.226562 -4.847656 10.421875 -5.628906 10.421875 -6.703125 L 10.421875 -14.5625 L 15.25 -14.5625 L 15.25 -6.546875 C 15.25 -4.367188 14.625 -2.675781 13.375 -1.46875 C 12.125 -0.269531 10.382812 0.328125 8.15625 0.328125 Z M 8.15625 0.328125 "/></g></g></g><g fill="#000000" fill-opacity="1"><g transform="translate(51.150079, 20.860852)"><g><path d="M 8.1875 -14.5625 C 9.539062 -14.5625 10.710938 -14.335938 11.703125 -13.890625 C 12.703125 -13.453125 13.472656 -12.816406 14.015625 -11.984375 C 14.554688 -11.148438 14.828125 -10.175781 14.828125 -9.0625 C 14.828125 -7.957031 14.554688 -6.988281 14.015625 -6.15625 C 13.472656 -5.320312 12.703125 -4.679688 11.703125 -4.234375 C 10.710938 -3.796875 9.539062 -3.578125 8.1875 -3.578125 L 6.09375 -3.578125 L 6.09375 0 L 1.1875 0 L 1.1875 -14.5625 Z M 7.875 -7.359375 C 8.539062 -7.359375 9.039062 -7.503906 9.375 -7.796875 C 9.707031 -8.097656 9.875 -8.519531 9.875 -9.0625 C 9.875 -9.601562 9.707031 -10.019531 9.375 -10.3125 C 9.039062 -10.613281 8.539062 -10.765625 7.875 -10.765625 L 6.09375 -10.765625 L 6.09375 -7.359375 Z M 7.875 -7.359375 "/></g></g></g><g fill="#000000" fill-opacity="1"><g transform="translate(65.82692, 20.860852)"><g><path d="M 15.53125 -14.5625 L 15.53125 0 L 10.625 0 L 10.625 -5.359375 L 6.09375 -5.359375 L 6.09375 0 L 1.1875 0 L 1.1875 -14.5625 L 6.09375 -14.5625 L 6.09375 -9.40625 L 10.625 -9.40625 L 10.625 -14.5625 Z M 15.53125 -14.5625 "/></g></g></g><g fill="#000000" fill-opacity="1"><g transform="translate(81.771887, 20.860852)"><g><path d="M 8.8125 0.328125 C 7.25 0.328125 5.84375 0.00390625 4.59375 -0.640625 C 3.34375 -1.296875 2.363281 -2.203125 1.65625 -3.359375 C 0.957031 -4.515625 0.609375 -5.820312 0.609375 -7.28125 C 0.609375 -8.738281 0.957031 -10.046875 1.65625 -11.203125 C 2.363281 -12.359375 3.34375 -13.257812 4.59375 -13.90625 C 5.84375 -14.5625 7.25 -14.890625 8.8125 -14.890625 C 10.382812 -14.890625 11.789062 -14.5625 13.03125 -13.90625 C 14.28125 -13.257812 15.257812 -12.359375 15.96875 -11.203125 C 16.675781 -10.046875 17.03125 -8.738281 17.03125 -7.28125 C 17.03125 -5.820312 16.675781 -4.515625 15.96875 -3.359375 C 15.257812 -2.203125 14.28125 -1.296875 13.03125 -0.640625 C 11.789062 0.00390625 10.382812 0.328125 8.8125 0.328125 Z M 8.8125 -3.640625 C 9.425781 -3.640625 9.976562 -3.785156 10.46875 -4.078125 C 10.957031 -4.378906 11.347656 -4.800781 11.640625 -5.34375 C 11.929688 -5.894531 12.078125 -6.539062 12.078125 -7.28125 C 12.078125 -8.007812 11.929688 -8.648438 11.640625 -9.203125 C 11.347656 -9.753906 10.957031 -10.175781 10.46875 -10.46875 C 9.976562 -10.769531 9.425781 -10.921875 8.8125 -10.921875 C 8.207031 -10.921875 7.65625 -10.769531 7.15625 -10.46875 C 6.664062 -10.175781 6.273438 -9.753906 5.984375 -9.203125 C 5.691406 -8.648438 5.546875 -8.007812 5.546875 -7.28125 C 5.546875 -6.539062 5.691406 -5.894531 5.984375 -5.34375 C 6.273438 -4.800781 6.664062 -4.378906 7.15625 -4.078125 C 7.65625 -3.785156 8.207031 -3.640625 8.8125 -3.640625 Z M 8.8125 -3.640625 "/></g></g></g><g fill="#000000" fill-opacity="1"><g transform="translate(98.631582, 20.860852)"><g><path d="M 15.53125 -14.5625 L 15.53125 0 L 11.5 0 L 5.96875 -6.609375 L 5.96875 0 L 1.1875 0 L 1.1875 -14.5625 L 5.21875 -14.5625 L 10.75 -7.9375 L 10.75 -14.5625 Z M 15.53125 -14.5625 "/></g></g></g><g fill="#000000" fill-opacity="1"><g transform="translate(114.576549, 20.860852)"><g><path d="M 13.296875 -3.703125 L 13.296875 0 L 1.1875 0 L 1.1875 -14.5625 L 13.015625 -14.5625 L 13.015625 -10.859375 L 6.015625 -10.859375 L 6.015625 -9.15625 L 12.171875 -9.15625 L 12.171875 -5.609375 L 6.015625 -5.609375 L 6.015625 -3.703125 Z M 13.296875 -3.703125 "/></g></g></g></g></g><g transform="matrix(1, 0, 0, 1, 20, 37)"><g clip-path="url(#3823cd5c8f)"><g clip-path="url(#b8d3eab0f8)"><g fill="#404041" fill-opacity="1"><g transform="translate(0.478256, 4.642133)"><g><path d="M 2.234375 0 L 1.65625 -0.828125 L 1.03125 -0.828125 L 1.03125 0 L 0.34375 0 L 0.34375 -2.953125 L 1.625 -2.953125 C 1.882812 -2.953125 2.109375 -2.90625 2.296875 -2.8125 C 2.492188 -2.726562 2.644531 -2.601562 2.75 -2.4375 C 2.851562 -2.28125 2.90625 -2.09375 2.90625 -1.875 C 2.90625 -1.65625 2.851562 -1.46875 2.75 -1.3125 C 2.644531 -1.15625 2.492188 -1.035156 2.296875 -0.953125 L 2.96875 0 Z M 2.21875 -1.875 C 2.21875 -2.039062 2.164062 -2.164062 2.0625 -2.25 C 1.957031 -2.34375 1.800781 -2.390625 1.59375 -2.390625 L 1.03125 -2.390625 L 1.03125 -1.359375 L 1.59375 -1.359375 C 1.800781 -1.359375 1.957031 -1.40625 2.0625 -1.5 C 2.164062 -1.59375 2.21875 -1.71875 2.21875 -1.875 Z M 2.21875 -1.875 "/></g></g></g></g><g fill="#404041" fill-opacity="1"><g transform="translate(4.39847, 4.642133)"><g><path d="M 2.640625 -0.546875 L 2.640625 0 L 0.34375 0 L 0.34375 -2.953125 L 2.578125 -2.953125 L 2.578125 -2.40625 L 1.03125 -2.40625 L 1.03125 -1.765625 L 2.40625 -1.765625 L 2.40625 -1.234375 L 1.03125 -1.234375 L 1.03125 -0.546875 Z M 2.640625 -0.546875 "/></g></g></g><g fill="#404041" fill-opacity="1"><g transform="translate(8.048324, 4.642133)"><g><path d="M 1.625 -2.953125 C 1.882812 -2.953125 2.109375 -2.90625 2.296875 -2.8125 C 2.492188 -2.726562 2.644531 -2.601562 2.75 -2.4375 C 2.851562 -2.28125 2.90625 -2.09375 2.90625 -1.875 C 2.90625 -1.664062 2.851562 -1.476562 2.75 -1.3125 C 2.644531 -1.15625 2.492188 -1.03125 2.296875 -0.9375 C 2.109375 -0.851562 1.882812 -0.8125 1.625 -0.8125 L 1.03125 -0.8125 L 1.03125 0 L 0.34375 0 L 0.34375 -2.953125 Z M 1.59375 -1.375 C 1.800781 -1.375 1.957031 -1.414062 2.0625 -1.5 C 2.164062 -1.59375 2.21875 -1.71875 2.21875 -1.875 C 2.21875 -2.039062 2.164062 -2.164062 2.0625 -2.25 C 1.957031 -2.34375 1.800781 -2.390625 1.59375 -2.390625 L 1.03125 -2.390625 L 1.03125 -1.375 Z M 1.59375 -1.375 "/></g></g></g><g fill="#404041" fill-opacity="1"><g transform="translate(11.955861, 4.642133)"><g><path d="M 2.296875 -0.640625 L 0.921875 -0.640625 L 0.65625 0 L -0.03125 0 L 1.28125 -2.953125 L 1.953125 -2.953125 L 3.28125 0 L 2.5625 0 Z M 2.078125 -1.15625 L 1.609375 -2.28125 L 1.140625 -1.15625 Z M 2.078125 -1.15625 "/></g></g></g><g fill="#404041" fill-opacity="1"><g transform="translate(16.007027, 4.642133)"><g><path d="M 2.234375 0 L 1.65625 -0.828125 L 1.03125 -0.828125 L 1.03125 0 L 0.34375 0 L 0.34375 -2.953125 L 1.625 -2.953125 C 1.882812 -2.953125 2.109375 -2.90625 2.296875 -2.8125 C 2.492188 -2.726562 2.644531 -2.601562 2.75 -2.4375 C 2.851562 -2.28125 2.90625 -2.09375 2.90625 -1.875 C 2.90625 -1.65625 2.851562 -1.46875 2.75 -1.3125 C 2.644531 -1.15625 2.492188 -1.035156 2.296875 -0.953125 L 2.96875 0 Z M 2.21875 -1.875 C 2.21875 -2.039062 2.164062 -2.164062 2.0625 -2.25 C 1.957031 -2.34375 1.800781 -2.390625 1.59375 -2.390625 L 1.03125 -2.390625 L 1.03125 -1.359375 L 1.59375 -1.359375 C 1.800781 -1.359375 1.957031 -1.40625 2.0625 -1.5 C 2.164062 -1.59375 2.21875 -1.71875 2.21875 -1.875 Z M 2.21875 -1.875 "/></g></g></g><g fill="#404041" fill-opacity="1"><g transform="translate(19.927241, 4.642133)"><g><path d="M 2.296875 -0.640625 L 0.921875 -0.640625 L 0.65625 0 L -0.03125 0 L 1.28125 -2.953125 L 1.953125 -2.953125 L 3.28125 0 L 2.5625 0 Z M 2.078125 -1.15625 L 1.609375 -2.28125 L 1.140625 -1.15625 Z M 2.078125 -1.15625 "/></g></g></g><g fill="#404041" fill-opacity="1"><g transform="translate(23.978407, 4.642133)"><g><path d="M 0.96875 -2.390625 L 0.015625 -2.390625 L 0.015625 -2.953125 L 2.59375 -2.953125 L 2.59375 -2.390625 L 1.640625 -2.390625 L 1.640625 0 L 0.96875 0 Z M 0.96875 -2.390625 "/></g></g></g><g fill="#404041" fill-opacity="1"><g transform="translate(27.404365, 4.642133)"><g><path d="M 0.34375 -2.953125 L 1.03125 -2.953125 L 1.03125 0 L 0.34375 0 Z M 0.34375 -2.953125 "/></g></g></g><g fill="#404041" fill-opacity="1"><g transform="translate(29.605259, 4.642133)"><g><path d="M 2.640625 -0.546875 L 2.640625 0 L 0.34375 0 L 0.34375 -2.953125 L 2.578125 -2.953125 L 2.578125 -2.40625 L 1.03125 -2.40625 L 1.03125 -1.765625 L 2.40625 -1.765625 L 2.40625 -1.234375 L 1.03125 -1.234375 L 1.03125 -0.546875 Z M 2.640625 -0.546875 "/></g></g></g><g fill="#404041" fill-opacity="1"><g transform="translate(33.255113, 4.642133)"><g><path d="M 1.328125 0.046875 C 1.085938 0.046875 0.859375 0.015625 0.640625 -0.046875 C 0.421875 -0.109375 0.25 -0.191406 0.125 -0.296875 L 0.34375 -0.8125 C 0.476562 -0.71875 0.628906 -0.640625 0.796875 -0.578125 C 0.972656 -0.523438 1.148438 -0.5 1.328125 -0.5 C 1.515625 -0.5 1.65625 -0.523438 1.75 -0.578125 C 1.84375 -0.640625 1.890625 -0.71875 1.890625 -0.8125 C 1.890625 -0.882812 1.863281 -0.941406 1.8125 -0.984375 C 1.757812 -1.035156 1.6875 -1.070312 1.59375 -1.09375 C 1.507812 -1.125 1.394531 -1.15625 1.25 -1.1875 C 1.03125 -1.25 0.847656 -1.304688 0.703125 -1.359375 C 0.554688 -1.410156 0.429688 -1.492188 0.328125 -1.609375 C 0.222656 -1.722656 0.171875 -1.878906 0.171875 -2.078125 C 0.171875 -2.253906 0.21875 -2.410156 0.3125 -2.546875 C 0.40625 -2.691406 0.546875 -2.800781 0.734375 -2.875 C 0.921875 -2.957031 1.148438 -3 1.421875 -3 C 1.609375 -3 1.789062 -2.976562 1.96875 -2.9375 C 2.15625 -2.894531 2.316406 -2.832031 2.453125 -2.75 L 2.234375 -2.21875 C 1.960938 -2.375 1.691406 -2.453125 1.421875 -2.453125 C 1.222656 -2.453125 1.078125 -2.421875 0.984375 -2.359375 C 0.898438 -2.296875 0.859375 -2.21875 0.859375 -2.125 C 0.859375 -2.019531 0.910156 -1.941406 1.015625 -1.890625 C 1.117188 -1.835938 1.28125 -1.789062 1.5 -1.75 C 1.71875 -1.695312 1.898438 -1.640625 2.046875 -1.578125 C 2.191406 -1.523438 2.316406 -1.441406 2.421875 -1.328125 C 2.523438 -1.210938 2.578125 -1.054688 2.578125 -0.859375 C 2.578125 -0.691406 2.53125 -0.535156 2.4375 -0.390625 C 2.34375 -0.253906 2.195312 -0.144531 2 -0.0625 C 1.8125 0.0078125 1.585938 0.046875 1.328125 0.046875 Z M 1.328125 0.046875 "/></g></g></g><g fill="#404041" fill-opacity="1"><g transform="translate(36.765559, 4.642133)"><g/></g></g><g fill="#404041" fill-opacity="1"><g transform="translate(38.776355, 4.642133)"><g><path d="M 3.1875 -2.953125 L 1.90625 0 L 1.234375 0 L -0.03125 -2.953125 L 0.703125 -2.953125 L 1.59375 -0.84375 L 2.515625 -2.953125 Z M 3.1875 -2.953125 "/></g></g></g><g fill="#404041" fill-opacity="1"><g transform="translate(42.743032, 4.642133)"><g><path d="M 2.296875 -0.640625 L 0.921875 -0.640625 L 0.65625 0 L -0.03125 0 L 1.28125 -2.953125 L 1.953125 -2.953125 L 3.28125 0 L 2.5625 0 Z M 2.078125 -1.15625 L 1.609375 -2.28125 L 1.140625 -1.15625 Z M 2.078125 -1.15625 "/></g></g></g><g fill="#404041" fill-opacity="1"><g transform="translate(46.794199, 4.642133)"><g><path d="M 3.0625 -2.953125 L 3.0625 0 L 2.5 0 L 1.03125 -1.796875 L 1.03125 0 L 0.34375 0 L 0.34375 -2.953125 L 0.921875 -2.953125 L 2.390625 -1.15625 L 2.390625 -2.953125 Z M 3.0625 -2.953125 "/></g></g></g><g fill="#404041" fill-opacity="1"><g transform="translate(51.022792, 4.642133)"><g/></g></g><g fill="#404041" fill-opacity="1"><g transform="translate(53.033588, 4.642133)"><g><path d="M 1.625 -2.953125 C 1.882812 -2.953125 2.109375 -2.90625 2.296875 -2.8125 C 2.492188 -2.726562 2.644531 -2.601562 2.75 -2.4375 C 2.851562 -2.28125 2.90625 -2.09375 2.90625 -1.875 C 2.90625 -1.664062 2.851562 -1.476562 2.75 -1.3125 C 2.644531 -1.15625 2.492188 -1.03125 2.296875 -0.9375 C 2.109375 -0.851562 1.882812 -0.8125 1.625 -0.8125 L 1.03125 -0.8125 L 1.03125 0 L 0.34375 0 L 0.34375 -2.953125 Z M 1.59375 -1.375 C 1.800781 -1.375 1.957031 -1.414062 2.0625 -1.5 C 2.164062 -1.59375 2.21875 -1.71875 2.21875 -1.875 C 2.21875 -2.039062 2.164062 -2.164062 2.0625 -2.25 C 1.957031 -2.34375 1.800781 -2.390625 1.59375 -2.390625 L 1.03125 -2.390625 L 1.03125 -1.375 Z M 1.59375 -1.375 "/></g></g></g><g fill="#404041" fill-opacity="1"><g transform="translate(56.941125, 4.642133)"><g><path d="M 3.0625 -2.953125 L 3.0625 0 L 2.375 0 L 2.375 -1.203125 L 1.03125 -1.203125 L 1.03125 0 L 0.34375 0 L 0.34375 -2.953125 L 1.03125 -2.953125 L 1.03125 -1.78125 L 2.375 -1.78125 L 2.375 -2.953125 Z M 3.0625 -2.953125 "/></g></g></g><g fill="#404041" fill-opacity="1"><g transform="translate(61.169718, 4.642133)"><g><path d="M 1.78125 0.046875 C 1.476562 0.046875 1.203125 -0.015625 0.953125 -0.140625 C 0.703125 -0.273438 0.507812 -0.457031 0.375 -0.6875 C 0.238281 -0.925781 0.171875 -1.191406 0.171875 -1.484375 C 0.171875 -1.765625 0.238281 -2.019531 0.375 -2.25 C 0.507812 -2.488281 0.703125 -2.671875 0.953125 -2.796875 C 1.203125 -2.929688 1.476562 -3 1.78125 -3 C 2.082031 -3 2.351562 -2.929688 2.59375 -2.796875 C 2.84375 -2.671875 3.035156 -2.488281 3.171875 -2.25 C 3.316406 -2.019531 3.390625 -1.765625 3.390625 -1.484375 C 3.390625 -1.191406 3.316406 -0.925781 3.171875 -0.6875 C 3.035156 -0.457031 2.84375 -0.273438 2.59375 -0.140625 C 2.351562 -0.015625 2.082031 0.046875 1.78125 0.046875 Z M 1.78125 -0.53125 C 1.957031 -0.53125 2.113281 -0.566406 2.25 -0.640625 C 2.394531 -0.722656 2.503906 -0.835938 2.578125 -0.984375 C 2.660156 -1.128906 2.703125 -1.296875 2.703125 -1.484375 C 2.703125 -1.660156 2.660156 -1.820312 2.578125 -1.96875 C 2.503906 -2.113281 2.394531 -2.222656 2.25 -2.296875 C 2.113281 -2.378906 1.957031 -2.421875 1.78125 -2.421875 C 1.601562 -2.421875 1.441406 -2.378906 1.296875 -2.296875 C 1.160156 -2.222656 1.050781 -2.113281 0.96875 -1.96875 C 0.894531 -1.820312 0.859375 -1.660156 0.859375 -1.484375 C 0.859375 -1.296875 0.894531 -1.128906 0.96875 -0.984375 C 1.050781 -0.835938 1.160156 -0.722656 1.296875 -0.640625 C 1.441406 -0.566406 1.601562 -0.53125 1.78125 -0.53125 Z M 1.78125 -0.53125 "/></g></g></g><g fill="#404041" fill-opacity="1"><g transform="translate(65.550385, 4.642133)"><g><path d="M 3.0625 -2.953125 L 3.0625 0 L 2.5 0 L 1.03125 -1.796875 L 1.03125 0 L 0.34375 0 L 0.34375 -2.953125 L 0.921875 -2.953125 L 2.390625 -1.15625 L 2.390625 -2.953125 Z M 3.0625 -2.953125 "/></g></g></g><g fill="#404041" fill-opacity="1"><g transform="translate(69.778979, 4.642133)"><g><path d="M 2.640625 -0.546875 L 2.640625 0 L 0.34375 0 L 0.34375 -2.953125 L 2.578125 -2.953125 L 2.578125 -2.40625 L 1.03125 -2.40625 L 1.03125 -1.765625 L 2.40625 -1.765625 L 2.40625 -1.234375 L 1.03125 -1.234375 L 1.03125 -0.546875 Z M 2.640625 -0.546875 "/></g></g></g><g fill="#404041" fill-opacity="1"><g transform="translate(73.428832, 4.642133)"><g><path d="M 1.328125 0.046875 C 1.085938 0.046875 0.859375 0.015625 0.640625 -0.046875 C 0.421875 -0.109375 0.25 -0.191406 0.125 -0.296875 L 0.34375 -0.8125 C 0.476562 -0.71875 0.628906 -0.640625 0.796875 -0.578125 C 0.972656 -0.523438 1.148438 -0.5 1.328125 -0.5 C 1.515625 -0.5 1.65625 -0.523438 1.75 -0.578125 C 1.84375 -0.640625 1.890625 -0.71875 1.890625 -0.8125 C 1.890625 -0.882812 1.863281 -0.941406 1.8125 -0.984375 C 1.757812 -1.035156 1.6875 -1.070312 1.59375 -1.09375 C 1.507812 -1.125 1.394531 -1.15625 1.25 -1.1875 C 1.03125 -1.25 0.847656 -1.304688 0.703125 -1.359375 C 0.554688 -1.410156 0.429688 -1.492188 0.328125 -1.609375 C 0.222656 -1.722656 0.171875 -1.878906 0.171875 -2.078125 C 0.171875 -2.253906 0.21875 -2.410156 0.3125 -2.546875 C 0.40625 -2.691406 0.546875 -2.800781 0.734375 -2.875 C 0.921875 -2.957031 1.148438 -3 1.421875 -3 C 1.609375 -3 1.789062 -2.976562 1.96875 -2.9375 C 2.15625 -2.894531 2.316406 -2.832031 2.453125 -2.75 L 2.234375 -2.21875 C 1.960938 -2.375 1.691406 -2.453125 1.421875 -2.453125 C 1.222656 -2.453125 1.078125 -2.421875 0.984375 -2.359375 C 0.898438 -2.296875 0.859375 -2.21875 0.859375 -2.125 C 0.859375 -2.019531 0.910156 -1.941406 1.015625 -1.890625 C 1.117188 -1.835938 1.28125 -1.789062 1.5 -1.75 C 1.71875 -1.695312 1.898438 -1.640625 2.046875 -1.578125 C 2.191406 -1.523438 2.316406 -1.441406 2.421875 -1.328125 C 2.523438 -1.210938 2.578125 -1.054688 2.578125 -0.859375 C 2.578125 -0.691406 2.53125 -0.535156 2.4375 -0.390625 C 2.34375 -0.253906 2.195312 -0.144531 2 -0.0625 C 1.8125 0.0078125 1.585938 0.046875 1.328125 0.046875 Z M 1.328125 0.046875 "/></g></g></g><g fill="#404041" fill-opacity="1"><g transform="translate(76.939279, 4.642133)"><g/></g></g><g fill="#404041" fill-opacity="1"><g transform="translate(78.950074, 4.642133)"><g><path d="M 2.625 0.046875 L 2.265625 -0.28125 C 1.984375 -0.0625 1.65625 0.046875 1.28125 0.046875 C 1.0625 0.046875 0.863281 0.015625 0.6875 -0.046875 C 0.519531 -0.117188 0.390625 -0.21875 0.296875 -0.34375 C 0.203125 -0.46875 0.15625 -0.609375 0.15625 -0.765625 C 0.15625 -0.941406 0.203125 -1.097656 0.296875 -1.234375 C 0.398438 -1.378906 0.566406 -1.515625 0.796875 -1.640625 C 0.691406 -1.753906 0.613281 -1.859375 0.5625 -1.953125 C 0.519531 -2.054688 0.5 -2.160156 0.5 -2.265625 C 0.5 -2.410156 0.535156 -2.535156 0.609375 -2.640625 C 0.679688 -2.753906 0.785156 -2.835938 0.921875 -2.890625 C 1.066406 -2.953125 1.234375 -2.984375 1.421875 -2.984375 C 1.671875 -2.984375 1.875 -2.921875 2.03125 -2.796875 C 2.1875 -2.679688 2.265625 -2.519531 2.265625 -2.3125 C 2.265625 -2.15625 2.21875 -2.019531 2.125 -1.90625 C 2.03125 -1.789062 1.882812 -1.675781 1.6875 -1.5625 L 2.234375 -1.0625 C 2.296875 -1.195312 2.34375 -1.347656 2.375 -1.515625 L 2.90625 -1.359375 C 2.84375 -1.097656 2.75 -0.875 2.625 -0.6875 L 2.984375 -0.359375 Z M 1.421875 -2.546875 C 1.316406 -2.546875 1.234375 -2.519531 1.171875 -2.46875 C 1.117188 -2.414062 1.09375 -2.351562 1.09375 -2.28125 C 1.09375 -2.21875 1.109375 -2.160156 1.140625 -2.109375 C 1.171875 -2.054688 1.234375 -1.988281 1.328125 -1.90625 C 1.472656 -1.976562 1.570312 -2.039062 1.625 -2.09375 C 1.675781 -2.15625 1.703125 -2.222656 1.703125 -2.296875 C 1.703125 -2.367188 1.675781 -2.425781 1.625 -2.46875 C 1.582031 -2.519531 1.515625 -2.546875 1.421875 -2.546875 Z M 1.328125 -0.46875 C 1.523438 -0.46875 1.707031 -0.523438 1.875 -0.640625 L 1.171875 -1.296875 C 1.035156 -1.222656 0.9375 -1.148438 0.875 -1.078125 C 0.820312 -1.003906 0.796875 -0.921875 0.796875 -0.828125 C 0.796875 -0.722656 0.84375 -0.632812 0.9375 -0.5625 C 1.03125 -0.5 1.160156 -0.46875 1.328125 -0.46875 Z M 1.328125 -0.46875 "/></g></g></g><g fill="#404041" fill-opacity="1"><g transform="translate(82.840718, 4.642133)"><g/></g></g><g fill="#404041" fill-opacity="1"><g transform="translate(84.851513, 4.642133)"><g><path d="M 0.96875 -2.390625 L 0.015625 -2.390625 L 0.015625 -2.953125 L 2.59375 -2.953125 L 2.59375 -2.390625 L 1.640625 -2.390625 L 1.640625 0 L 0.96875 0 Z M 0.96875 -2.390625 "/></g></g></g><g fill="#404041" fill-opacity="1"><g transform="translate(88.277471, 4.642133)"><g><path d="M 2.296875 -0.640625 L 0.921875 -0.640625 L 0.65625 0 L -0.03125 0 L 1.28125 -2.953125 L 1.953125 -2.953125 L 3.28125 0 L 2.5625 0 Z M 2.078125 -1.15625 L 1.609375 -2.28125 L 1.140625 -1.15625 Z M 2.078125 -1.15625 "/></g></g></g><g fill="#404041" fill-opacity="1"><g transform="translate(92.328637, 4.642133)"><g><path d="M 2.515625 -1.53125 C 2.679688 -1.476562 2.8125 -1.390625 2.90625 -1.265625 C 3.007812 -1.140625 3.0625 -0.988281 3.0625 -0.8125 C 3.0625 -0.550781 2.957031 -0.347656 2.75 -0.203125 C 2.550781 -0.0664062 2.257812 0 1.875 0 L 0.34375 0 L 0.34375 -2.953125 L 1.796875 -2.953125 C 2.148438 -2.953125 2.421875 -2.882812 2.609375 -2.75 C 2.804688 -2.613281 2.90625 -2.425781 2.90625 -2.1875 C 2.90625 -2.039062 2.867188 -1.910156 2.796875 -1.796875 C 2.734375 -1.679688 2.640625 -1.59375 2.515625 -1.53125 Z M 1.03125 -2.4375 L 1.03125 -1.75 L 1.703125 -1.75 C 1.878906 -1.75 2.007812 -1.773438 2.09375 -1.828125 C 2.175781 -1.890625 2.21875 -1.976562 2.21875 -2.09375 C 2.21875 -2.207031 2.175781 -2.289062 2.09375 -2.34375 C 2.007812 -2.40625 1.878906 -2.4375 1.703125 -2.4375 Z M 1.828125 -0.515625 C 2.003906 -0.515625 2.140625 -0.539062 2.234375 -0.59375 C 2.328125 -0.65625 2.375 -0.75 2.375 -0.875 C 2.375 -1.125 2.191406 -1.25 1.828125 -1.25 L 1.03125 -1.25 L 1.03125 -0.515625 Z M 1.828125 -0.515625 "/></g></g></g><g fill="#404041" fill-opacity="1"><g transform="translate(96.375582, 4.642133)"><g><path d="M 0.34375 -2.953125 L 1.03125 -2.953125 L 1.03125 -0.5625 L 2.515625 -0.5625 L 2.515625 0 L 0.34375 0 Z M 0.34375 -2.953125 "/></g></g></g><g fill="#404041" fill-opacity="1"><g transform="translate(99.742404, 4.642133)"><g><path d="M 2.640625 -0.546875 L 2.640625 0 L 0.34375 0 L 0.34375 -2.953125 L 2.578125 -2.953125 L 2.578125 -2.40625 L 1.03125 -2.40625 L 1.03125 -1.765625 L 2.40625 -1.765625 L 2.40625 -1.234375 L 1.03125 -1.234375 L 1.03125 -0.546875 Z M 2.640625 -0.546875 "/></g></g></g><g fill="#404041" fill-opacity="1"><g transform="translate(103.392253, 4.642133)"><g><path d="M 0.96875 -2.390625 L 0.015625 -2.390625 L 0.015625 -2.953125 L 2.59375 -2.953125 L 2.59375 -2.390625 L 1.640625 -2.390625 L 1.640625 0 L 0.96875 0 Z M 0.96875 -2.390625 "/></g></g></g><g fill="#404041" fill-opacity="1"><g transform="translate(106.818216, 4.642133)"><g><path d="M 1.328125 0.046875 C 1.085938 0.046875 0.859375 0.015625 0.640625 -0.046875 C 0.421875 -0.109375 0.25 -0.191406 0.125 -0.296875 L 0.34375 -0.8125 C 0.476562 -0.71875 0.628906 -0.640625 0.796875 -0.578125 C 0.972656 -0.523438 1.148438 -0.5 1.328125 -0.5 C 1.515625 -0.5 1.65625 -0.523438 1.75 -0.578125 C 1.84375 -0.640625 1.890625 -0.71875 1.890625 -0.8125 C 1.890625 -0.882812 1.863281 -0.941406 1.8125 -0.984375 C 1.757812 -1.035156 1.6875 -1.070312 1.59375 -1.09375 C 1.507812 -1.125 1.394531 -1.15625 1.25 -1.1875 C 1.03125 -1.25 0.847656 -1.304688 0.703125 -1.359375 C 0.554688 -1.410156 0.429688 -1.492188 0.328125 -1.609375 C 0.222656 -1.722656 0.171875 -1.878906 0.171875 -2.078125 C 0.171875 -2.253906 0.21875 -2.410156 0.3125 -2.546875 C 0.40625 -2.691406 0.546875 -2.800781 0.734375 -2.875 C 0.921875 -2.957031 1.148438 -3 1.421875 -3 C 1.609375 -3 1.789062 -2.976562 1.96875 -2.9375 C 2.15625 -2.894531 2.316406 -2.832031 2.453125 -2.75 L 2.234375 -2.21875 C 1.960938 -2.375 1.691406 -2.453125 1.421875 -2.453125 C 1.222656 -2.453125 1.078125 -2.421875 0.984375 -2.359375 C 0.898438 -2.296875 0.859375 -2.21875 0.859375 -2.125 C 0.859375 -2.019531 0.910156 -1.941406 1.015625 -1.890625 C 1.117188 -1.835938 1.28125 -1.789062 1.5 -1.75 C 1.71875 -1.695312 1.898438 -1.640625 2.046875 -1.578125 C 2.191406 -1.523438 2.316406 -1.441406 2.421875 -1.328125 C 2.523438 -1.210938 2.578125 -1.054688 2.578125 -0.859375 C 2.578125 -0.691406 2.53125 -0.535156 2.4375 -0.390625 C 2.34375 -0.253906 2.195312 -0.144531 2 -0.0625 C 1.8125 0.0078125 1.585938 0.046875 1.328125 0.046875 Z M 1.328125 0.046875 "/></g></g></g></g></g></svg>